<svg width="30" height="30" viewBox="0 0 30 30" fill="none" xmlns="http://www.w3.org/2000/svg">
<rect width="30" height="30" fill="black"/>
<path fill-rule="evenodd" clip-rule="evenodd" d="M7.00009 2L7 5.58787V9.02049V9.17069V11.4841V11.9682V19.9005V28C8.80708 28 10.5216 27.6015 12.0613 26.8874C10.7481 26.2942 9.71194 25.5281 8.95291 24.5891L11.1529 21.7502C11.8268 22.4474 12.6593 23.0052 13.6503 23.4236C14.6413 23.8221 15.6323 24.0213 16.6233 24.0213C17.8125 24.0213 18.7341 23.7921 19.3882 23.334C20.0423 22.8559 20.3693 22.2382 20.3693 21.4813C20.3693 20.6843 20.0522 20.1065 19.4179 19.748C18.7837 19.3694 17.7729 19.1802 16.3855 19.1802C15.1368 19.1802 14.3143 19.2001 13.9178 19.24V15.4149C14.1557 15.4349 14.9782 15.4448 16.3855 15.4448C18.8234 15.4448 20.0423 14.7375 20.0423 13.323C20.0423 12.566 19.6954 11.9882 19.0017 11.5897C18.3279 11.1715 17.4459 10.9623 16.3558 10.9623C14.4332 10.9623 12.7584 11.6496 11.3313 13.0242L9.22047 10.3646C11.0836 8.25284 13.6106 7.19696 16.8017 7.19696C18.7138 7.19696 20.2889 7.52879 21.5273 8.19244L22.7762 4.53778L19.5449 5.14761C18.2211 4.00972 16.3422 3.29914 14.2583 3.29914C12.603 3.29914 11.0771 3.74745 9.85601 4.50206L7.00009 2Z" fill="white"/>
</svg>

