<svg width="56" height="56" viewBox="0 0 56 56" fill="none" xmlns="http://www.w3.org/2000/svg">
<rect width="56" height="56" fill="url(#paint0_linear_2188_4642)"/>
<path d="M22.0433 20.2H28.3313C30.2193 20.2 31.6833 20.584 32.7233 21.352C33.7793 22.12 34.3073 23.232 34.3073 24.688C34.3073 25.52 34.0993 26.232 33.6833 26.824C33.2833 27.416 32.7713 27.888 32.1473 28.24C32.9793 28.56 33.6273 29.032 34.0913 29.656C34.5713 30.28 34.8113 31.136 34.8113 32.224C34.8113 32.896 34.6913 33.528 34.4513 34.12C34.2113 34.696 33.8353 35.2 33.3233 35.632C32.8113 36.048 32.1553 36.384 31.3553 36.64C30.5713 36.88 29.6193 37 28.4993 37H22.0433V20.2ZM28.3313 34.144C29.4513 34.144 30.2353 33.952 30.6833 33.568C31.1473 33.184 31.3793 32.64 31.3793 31.936C31.3793 31.2 31.1553 30.648 30.7073 30.28C30.2753 29.896 29.4833 29.704 28.3313 29.704H25.4753V34.144H28.3313ZM28.3313 27.016C29.2113 27.016 29.8513 26.84 30.2513 26.488C30.6673 26.12 30.8753 25.648 30.8753 25.072C30.8753 24.448 30.6753 23.96 30.2753 23.608C29.8753 23.24 29.2273 23.056 28.3313 23.056H25.4753V27.016H28.3313Z" fill="#516173"/>
<defs>
<linearGradient id="paint0_linear_2188_4642" x1="28" y1="196.699" x2="28" y2="27.9993" gradientUnits="userSpaceOnUse">
<stop stop-color="#3A9EFF"/>
<stop offset="1" stop-color="#ECF6FF"/>
</linearGradient>
</defs>
</svg>
